<svg width="16" height="16" viewBox="0 0 16 16" fill="none" xmlns="http://www.w3.org/2000/svg">
<path d="M14.2649 4.765L6.26492 12.765C6.19461 12.8352 6.0993 12.8747 5.99992 12.8747C5.90055 12.8747 5.80524 12.8352 5.73492 12.765L2.23492 9.265C2.16868 9.19391 2.13262 9.09989 2.13434 9.00274C2.13605 8.90559 2.17541 8.8129 2.24411 8.74419C2.31282 8.67548 2.40551 8.63613 2.50266 8.63441C2.59981 8.6327 2.69384 8.66876 2.76492 8.735L5.99992 11.9694L13.7349 4.235C13.806 4.16876 13.9 4.1327 13.9972 4.13441C14.0943 4.13613 14.187 4.17548 14.2557 4.24419C14.3244 4.3129 14.3638 4.40559 14.3655 4.50274C14.3672 4.59989 14.3312 4.69391 14.2649 4.765Z" fill="white"/>
</svg>
